<svg id="Layer_1" data-name="Layer 1" xmlns="http://www.w3.org/2000/svg" viewBox="0 0 446.48515 47.2321"><defs><style>.cls-1{fill:#33006f;}</style></defs><title>AllenSchool_mark_RGB</title><path class="cls-1" d="M90.80058,24.81445V.3457h9.22754a7.66682,7.66682,0,1,1,.03516,15.31055H92.83964v9.1582Zm9.22754-11.19727a5.63382,5.63382,0,1,0,0-11.23242H92.83964V13.61719Z"/><path class="cls-1" d="M128.19511,24.81445h-2.14355l-2.9375-8.15625H112.60722l-2.86816,8.15625h-2.14258L116.3748.3457h2.97266ZM113.33379,14.61963h9.05469L117.86113,1.86621Z"/><path class="cls-1" d="M132.58281,17.55664c0,3.69824,3.55957,5.56445,7.1543,5.56445,3.55957,0,7.11914-1.86621,7.11914-5.56445V.3457h2.03906V17.52246c0,5.08008-4.59668,7.6377-9.1582,7.6377-4.59668,0-9.19336-2.55762-9.19336-7.6377V.3457h2.03906Z"/><path class="cls-1" d="M154.18242,24.81445V.3457h2.03906V22.77539h12.23438v2.03906Z"/><path class="cls-1" d="M177.82109,7.43066C177.82109,2.52295,182.41777,0,186.98027,0c3.45605,0,6.91211,1.45166,8.3291,4.42383l-1.832.89844c-1.07129-2.17725-3.83594-3.2832-6.56641-3.2832-3.52539,0-7.05078,1.79736-7.05078,5.3916V17.66016c0,3.62891,3.55957,5.46094,7.1543,5.46094,3.55957,0,7.11914-1.832,7.11914-5.46094V14.585h-7.499V12.5459h9.53809V17.626c0,5.01172-4.5957,7.53418-9.1582,7.53418-4.59668,0-9.19336-2.52246-9.19336-7.53418Z"/><path class="cls-1" d="M200.56132,21.7041a1.65918,1.65918,0,1,1-1.65918,1.65918A1.63818,1.63818,0,0,1,200.56132,21.7041Z"/><path class="cls-1" d="M231.5955,24.81445h-2.14355l-2.9375-8.15625H216.00761l-2.86816,8.15625h-2.14258L219.77519.3457h2.97266ZM216.73418,14.61963h9.05469L221.26152,1.86621Z"/><path class="cls-1" d="M234.532,24.81445V.3457h2.03906V22.77539h12.23438v2.03906Z"/><path class="cls-1" d="M252.08867,24.81445V.3457h2.03906V22.77539h12.23438v2.03906Z"/><path class="cls-1" d="M271.68437,11.54346H283.9539v2.07373H271.68437v9.1582H284.99v2.03906H269.64531V.3457H284.99V2.38477H271.68437Z"/><path class="cls-1" d="M305.62187,22.56836V.3457h2.03906V24.81445h-3.041L291.34843,3.49072V24.81445h-2.03906V.3457h2.48828Z"/><path class="cls-1" d="M328.25761,11.12891c4.2168.8291,8.84766,1.76221,8.57129,7.60254-.207,4.28613-4.42383,6.42871-8.74414,6.42871-3.66309,0-7.43066-1.58984-8.8125-4.73437l1.86621-.83008c1.03711,2.35059,4.04395,3.52539,7.01563,3.52539,3.249,0,6.39453-1.45117,6.63574-4.458.31152-4.07812-3.2832-4.873-7.0498-5.668-4.04395-.82959-8.26074-1.728-8.08789-6.77393C319.79082,2.1084,323.90312,0,328.11992,0c3.62891,0,7.292,1.52051,8.63965,4.59668l-1.83105.82959c-1.00293-2.28125-3.97461-3.42187-6.80859-3.42187-3.17969,0-6.25586,1.34814-6.46289,4.2168C321.41484,9.71191,324.698,10.4375,328.25761,11.12891Z"/><path class="cls-1" d="M340.42265,7.43066C340.42265,2.52295,345.05351,0,349.616,0c3.45605,0,6.91211,1.417,8.3291,4.38916l-1.832.89893v.03418c-1.10547-2.17725-3.83594-3.2832-6.60059-3.2832-3.52539,0-7.05078,1.79736-7.05078,5.3916V17.72949c0,3.59473,3.52539,5.3916,7.05078,5.3916,2.76465,0,5.49512-1.10547,6.60059-3.2832l1.832.89844c-1.417,2.9375-4.94238,4.42383-8.43262,4.42383-4.5625,0-9.08984-2.48828-9.08984-7.43066Z"/><path class="cls-1" d="M363.64629,24.81445h-2.03906V.3457h2.03906V11.57813h14.27344V.3457h2.03906V24.81445h-2.03906V13.51367H363.64629Z"/><path class="cls-1" d="M384.69316,7.53418C384.69316,2.52295,389.53105,0,394.4041,0c4.83887,0,9.67773,2.52295,9.67773,7.53418V17.626c0,5.01172-4.83887,7.53418-9.67773,7.53418-4.873,0-9.71094-2.52246-9.71094-7.53418Zm2.03906,10.0918c0,3.66309,3.83594,5.49512,7.67188,5.49512,3.80176,0,7.63867-1.832,7.63867-5.49512V7.53418c0-3.87061-3.87109-5.49512-7.707-5.49512-3.80176.03467-7.60352,1.69336-7.60352,5.49512Z"/><path class="cls-1" d="M408.08965,7.53418C408.08965,2.52295,412.92754,0,417.80058,0c4.83887,0,9.67773,2.52295,9.67773,7.53418V17.626c0,5.01172-4.83887,7.53418-9.67773,7.53418-4.873,0-9.71094-2.52246-9.71094-7.53418Zm2.03906,10.0918c0,3.66309,3.83594,5.49512,7.67188,5.49512,3.80176,0,7.63867-1.832,7.63867-5.49512V7.53418c0-3.87061-3.87109-5.49512-7.707-5.49512-3.80176.03467-7.60352,1.69336-7.60352,5.49512Z"/><path class="cls-1" d="M432.21172,24.81445V.3457h2.03906V22.77539h12.23438v2.03906Z"/><path class="cls-1" d="M96.85527,46.90039a6.08492,6.08492,0,0,1-4.48633-1.5166,6.06149,6.06149,0,0,1-1.5166-4.46973,6.109,6.109,0,0,1,1.5166-4.502,7.36584,7.36584,0,0,1,8.96387.00781,6.0936,6.0936,0,0,1,1.52441,4.49414,6.04,6.04,0,0,1-1.52441,4.46973A6.09038,6.09038,0,0,1,96.85527,46.90039Zm0-2.81152a4.23252,4.23252,0,0,0,1.16895-.13477,1.3823,1.3823,0,0,0,.72656-.48145,2.14753,2.14753,0,0,0,.37109-.96289,10.06633,10.06633,0,0,0,.10254-1.5957,8.72694,8.72694,0,0,0-.11816-1.57129,2.411,2.411,0,0,0-.3877-.9873,1.38572,1.38572,0,0,0-.72656-.50586,4.63727,4.63727,0,0,0-2.27441,0,1.38572,1.38572,0,0,0-.72656.50586,2.40239,2.40239,0,0,0-.38672.97852,8.62436,8.62436,0,0,0-.11816,1.58008,9.16629,9.16629,0,0,0,.11035,1.5791,2.247,2.247,0,0,0,.37891.97168,1.354,1.354,0,0,0,.72656.48926A4.16,4.16,0,0,0,96.85527,44.08887Z"/><path class="cls-1" d="M104.29472,35.05371h9.12891v2.7168h-5.5752v2.19531H112.824v2.7334h-4.97559v4.043h-3.55371Z"/><path class="cls-1" d="M123.31132,46.96387a6.53331,6.53331,0,0,1-4.69141-1.47754,6.09219,6.09219,0,0,1-1.53223-4.57227,6.285,6.285,0,0,1,1.47754-4.59668,6.04626,6.04626,0,0,1,4.46191-1.48437q.55225,0,1.208.05469.65625.05566,1.60352.18164v2.7959q-.52148-.04687-.877-.0791c-.23633-.02051-.44238-.03613-.61523-.04687-.17383-.01074-.32715-.01855-.459-.02344-.13086-.00586-.26562-.00781-.40234-.00781a6.531,6.531,0,0,0-1.38184.11816,1.48263,1.48263,0,0,0-.8291.46582,1.99645,1.99645,0,0,0-.41113.97949,9.9242,9.9242,0,0,0-.11035,1.64258,9.52208,9.52208,0,0,0,.11035,1.61133,1.927,1.927,0,0,0,.41113.95508,1.542,1.542,0,0,0,.8291.46582,5.91936,5.91936,0,0,0,1.35059.127c.17871,0,.37891-.00586.59961-.01562.22168-.01074.44238-.02637.66406-.04785q.33105-.03076.624-.06348a4.28956,4.28956,0,0,0,.49707-.07812v2.81152q-.58447.126-1.23242.20508A10.66839,10.66839,0,0,1,123.31132,46.96387Z"/><path class="cls-1" d="M132.66191,46.90039a6.08492,6.08492,0,0,1-4.48633-1.5166,6.06149,6.06149,0,0,1-1.5166-4.46973,6.109,6.109,0,0,1,1.5166-4.502,7.36584,7.36584,0,0,1,8.96387.00781,6.0936,6.0936,0,0,1,1.52441,4.49414,6.04,6.04,0,0,1-1.52441,4.46973A6.09038,6.09038,0,0,1,132.66191,46.90039Zm0-2.81152a4.23252,4.23252,0,0,0,1.16895-.13477,1.3823,1.3823,0,0,0,.72656-.48145,2.14753,2.14753,0,0,0,.37109-.96289,10.06634,10.06634,0,0,0,.10254-1.5957,8.72694,8.72694,0,0,0-.11816-1.57129,2.411,2.411,0,0,0-.3877-.9873,1.38572,1.38572,0,0,0-.72656-.50586,4.63727,4.63727,0,0,0-2.27441,0,1.38572,1.38572,0,0,0-.72656.50586,2.40239,2.40239,0,0,0-.38672.97852,8.62437,8.62437,0,0,0-.11816,1.58008,9.1663,9.1663,0,0,0,.11035,1.5791,2.247,2.247,0,0,0,.37891.97168,1.354,1.354,0,0,0,.72656.48926A4.16,4.16,0,0,0,132.66191,44.08887Z"/><path class="cls-1" d="M140.10136,35.05371H144.95l1.7373,4.75488.60059,2.35352h.09473l.61621-2.35352,1.7373-4.75488h4.833V46.74219h-3.127V38.89258h-.14258l-.96289,3.1582-1.5957,4.21777h-2.81152l-1.5957-4.21777-.96289-3.1582h-.14258v7.84961h-3.127Z"/><path class="cls-1" d="M156.48125,35.13281a33.77215,33.77215,0,0,1,3.86914-.2373,15.267,15.267,0,0,1,2.94629.24512,5.55552,5.55552,0,0,1,2.01367.77441,3.1879,3.1879,0,0,1,1.16113,1.35059,4.77123,4.77123,0,0,1,.37109,1.97363q0,4.37549-6.38086,4.376H160.035v3.127h-3.55371Zm4.56445,5.75a5.94326,5.94326,0,0,0,1.05859-.0791,1.55,1.55,0,0,0,.6709-.26855,1.02282,1.02282,0,0,0,.34766-.50586,2.59008,2.59008,0,0,0,.10254-.79,2.94953,2.94953,0,0,0-.08691-.78125.92836.92836,0,0,0-.31543-.49023,1.47431,1.47431,0,0,0-.63184-.25977,5.54551,5.54551,0,0,0-1.03516-.0791c-.168,0-.36621.00488-.5918.01563a4.964,4.964,0,0,0-.5293.04688v3.1123c.1582.02051.32129.03906.48926.05469C160.69316,40.874,160.867,40.88281,161.0457,40.88281Z"/><path class="cls-1" d="M173.61894,46.90039a9.87576,9.87576,0,0,1-2.70117-.31543,4.23213,4.23213,0,0,1-1.75293-.94043,3.48056,3.48056,0,0,1-.94727-1.56348,7.61074,7.61074,0,0,1-.28516-2.20312V35.02246h3.55469v6.96582a2.20133,2.20133,0,0,0,.49707,1.54,2.73633,2.73633,0,0,0,3.27734,0,2.22741,2.22741,0,0,0,.49023-1.54V35.02246h3.55371v6.85547a7.64654,7.64654,0,0,1-.28418,2.20313,3.53507,3.53507,0,0,1-.94824,1.57129,4.11306,4.11306,0,0,1-1.75293.94043A10.10059,10.10059,0,0,1,173.61894,46.90039Z"/><path class="cls-1" d="M183.63261,37.78613h-3.17578V35.05371h9.9043v2.73242h-3.1748v8.95605h-3.55371Z"/><path class="cls-1" d="M191.6248,35.05371h9.16113v2.7168h-5.60742V39.54h5.00684v2.7168h-5.00684v1.75293h5.76563v2.73242H191.6248Z"/><path class="cls-1" d="M207.4666,43.125a3.55946,3.55946,0,0,1-.48145.03223H205.9666v3.585h-3.55371V35.13281a33.4971,33.4971,0,0,1,3.86914-.2373,15.75776,15.75776,0,0,1,2.93848.2373,5.87508,5.87508,0,0,1,2.02148.73438,3.036,3.036,0,0,1,1.16113,1.28711,4.39437,4.39437,0,0,1,.37109,1.87988,3.495,3.495,0,0,1-2.21094,3.44336l2.81152,4.26465h-3.98047Zm-.48926-2.65332a6.54362,6.54362,0,0,0,1.05859-.07129,1.68766,1.68766,0,0,0,.6709-.23633.90374.90374,0,0,0,.34766-.44238,1.99267,1.99267,0,0,0,.10254-.6875,2.12825,2.12825,0,0,0-.09473-.68652.84352.84352,0,0,0-.32422-.43457,1.53749,1.53749,0,0,0-.63086-.22168,6.80548,6.80548,0,0,0-1.01953-.0625c-.14746,0-.334.00488-.56055.01563s-.41309.02637-.56055.04688v2.70117a2.09711,2.09711,0,0,0,.39453.06348Q206.58232,40.47217,206.97734,40.47168Z"/><path class="cls-1" d="M221.57207,46.93164q-.50537,0-1.082-.03125-.57715-.03223-1.18457-.10254c-.40527-.04785-.80859-.09961-1.208-.1582q-.60059-.08643-1.1377-.21289V43.583q1.28027.28418,2.32227.43457a13.60414,13.60414,0,0,0,1.94238.15039,3.58207,3.58207,0,0,0,1.335-.17383.59882.59882,0,0,0,.38672-.585.70432.70432,0,0,0-.43457-.6709,4.75158,4.75158,0,0,0-1.36621-.33984,8.97136,8.97136,0,0,1-1.76074-.418,3.86548,3.86548,0,0,1-1.28711-.74316,2.90978,2.90978,0,0,1-.78223-1.13672,4.425,4.425,0,0,1-.26074-1.60352,3.07964,3.07964,0,0,1,1.31934-2.65332,6.23133,6.23133,0,0,1,3.6875-.94824c.27441,0,.54492.00879.81348.02441s.55859.042.86914.0791.64746.084,1.01074.1416q.54492.08789,1.24023.22949v2.81152c-.27441-.084-.56348-.1582-.86914-.22168q-.4585-.09375-.92383-.166-.46582-.07031-.916-.11035-.44971-.03955-.8291-.03906-1.69043,0-1.69043.77344a.84568.84568,0,0,0,.47363.77441,4.90606,4.90606,0,0,0,1.5166.44238,9.46081,9.46081,0,0,1,1.72168.4502,4.09546,4.09546,0,0,1,1.208.68652,2.56021,2.56021,0,0,1,.71875.9873,3.53507,3.53507,0,0,1,.2373,1.35059Q226.64238,46.93262,221.57207,46.93164Z"/><path class="cls-1" d="M233.67168,46.96387a6.53331,6.53331,0,0,1-4.69141-1.47754,6.09219,6.09219,0,0,1-1.53223-4.57227,6.285,6.285,0,0,1,1.47754-4.59668A6.04626,6.04626,0,0,1,233.3875,34.833q.55225,0,1.208.05469.65625.05566,1.60352.18164v2.7959q-.52148-.04687-.877-.0791c-.23633-.02051-.44238-.03613-.61523-.04687-.17383-.01074-.32715-.01855-.459-.02344-.13086-.00586-.26562-.00781-.40234-.00781a6.531,6.531,0,0,0-1.38184.11816,1.48263,1.48263,0,0,0-.8291.46582,1.99645,1.99645,0,0,0-.41113.97949,9.92421,9.92421,0,0,0-.11035,1.64258,9.52209,9.52209,0,0,0,.11035,1.61133,1.927,1.927,0,0,0,.41113.95508,1.542,1.542,0,0,0,.8291.46582,5.91936,5.91936,0,0,0,1.35059.127c.17871,0,.37891-.00586.59961-.01562.22168-.01074.44238-.02637.66406-.04785q.33105-.03076.624-.06348a4.28956,4.28956,0,0,0,.49707-.07812v2.81152q-.58447.126-1.23242.20508A10.66839,10.66839,0,0,1,233.67168,46.96387Z"/><path class="cls-1" d="M237.65215,35.05371h3.55371V46.74219h-3.55371Z"/><path class="cls-1" d="M243.13359,35.05371h9.16113v2.7168H246.6873V39.54h5.00684v2.7168H246.6873v1.75293h5.76563v2.73242h-9.31934Z"/><path class="cls-1" d="M253.92168,35.05371h2.7959l4.248,5.14941.94824,1.31152h.1582V35.05371h3.0957V46.74219h-2.7959L258.28105,41.751l-1.10547-1.48437h-.1582v6.47559h-3.0957Z"/><path class="cls-1" d="M272.82695,46.96387a6.53331,6.53331,0,0,1-4.69141-1.47754,6.09219,6.09219,0,0,1-1.53223-4.57227,6.285,6.285,0,0,1,1.47754-4.59668,6.04626,6.04626,0,0,1,4.46191-1.48437q.55225,0,1.208.05469.65625.05566,1.60352.18164v2.7959q-.52148-.04687-.877-.0791c-.23633-.02051-.44238-.03613-.61523-.04687-.17383-.01074-.32715-.01855-.459-.02344-.13086-.00586-.26562-.00781-.40234-.00781a6.531,6.531,0,0,0-1.38184.11816,1.48263,1.48263,0,0,0-.8291.46582,1.99645,1.99645,0,0,0-.41113.97949,9.92394,9.92394,0,0,0-.11037,1.64258,9.52183,9.52183,0,0,0,.11037,1.61133,1.927,1.927,0,0,0,.41113.95508,1.542,1.542,0,0,0,.8291.46582,5.91936,5.91936,0,0,0,1.35059.127c.17871,0,.37891-.00586.59961-.01562.22168-.01074.44238-.02637.66406-.04785q.33105-.03076.624-.06348a4.28956,4.28956,0,0,0,.49707-.07812v2.81152q-.58447.126-1.23242.20508A10.66839,10.66839,0,0,1,272.82695,46.96387Z"/><path class="cls-1" d="M276.80742,35.05371h9.16113v2.7168h-5.60742V39.54H285.368v2.7168h-5.00684v1.75293h5.76563v2.73242h-9.31934Z"/><path class="cls-1" d="M295.57207,46.88477a9.065,9.065,0,0,1-2.16406-.2373,5.312,5.312,0,0,1-1.64258-.67871,3.24893,3.24893,0,0,1-1.05078-1.07422,2.72653,2.72653,0,0,1-.37109-1.40625,2.98555,2.98555,0,0,1,.63965-1.91113,3.16239,3.16239,0,0,1,1.76172-1.08984,5.02359,5.02359,0,0,1-1.07422-1.29492,2.61249,2.61249,0,0,1-.31641-1.23242,2.54012,2.54012,0,0,1,.332-1.28711,2.90312,2.90312,0,0,1,.94824-.97949,4.76383,4.76383,0,0,1,1.5-.61621,8.4702,8.4702,0,0,1,1.97461-.21289,13.5546,13.5546,0,0,1,1.68262.11035,15.79954,15.79954,0,0,1,1.77637.332l.04785.0791-.332,2.30566h-.14258a9.75233,9.75233,0,0,0-1.374-.32324,8.06508,8.06508,0,0,0-1.2793-.11914,2.24671,2.24671,0,0,0-1.17676.2373.83388.83388,0,0,0-.37109.75781q0,.98,2.90625,2.54395l.60059.33105v-1.248l3.127-.11035v1.54785a6.78215,6.78215,0,0,1-.1416,1.42188l1.5.80566v.20508l-1.248,2.44824h-.15723l-1.46875-.88477a5.38868,5.38868,0,0,1-1.91992,1.16895A7.46348,7.46348,0,0,1,295.57207,46.88477Zm.94727-3.74414q-.48926-.28418-.916-.55273-.42627-.26807-.80566-.53711a1.20785,1.20785,0,0,0-.85254,1.23242,1.07807,1.07807,0,0,0,.51367.92383,2.35486,2.35486,0,0,0,1.36621.35547,2.46938,2.46938,0,0,0,1.89551-.69434Z"/><path class="cls-1" d="M306.88164,35.05371h9.16113v2.7168h-5.60742V39.54h5.00684v2.7168h-5.00684v1.75293H316.201v2.73242h-9.31934Z"/><path class="cls-1" d="M317.66972,35.05371h2.7959l4.248,5.14941.94824,1.31152h.1582V35.05371h3.0957V46.74219h-2.7959L322.0291,41.751l-1.10547-1.48437h-.1582v6.47559h-3.0957Z"/><path class="cls-1" d="M336.56035,46.96387a6.50963,6.50963,0,0,1-4.69922-1.48535,6.11274,6.11274,0,0,1-1.52441-4.56445q0-6.08057,6.55566-6.08105a18.2877,18.2877,0,0,1,1.88672.10254,12.77649,12.77649,0,0,1,1.69824.27637v2.81152q-1.07373-.17432-1.91113-.24512-.83789-.07031-1.38965-.07031a8.35155,8.35155,0,0,0-1.60352.126,1.82751,1.82751,0,0,0-.97168.48145,1.90551,1.90551,0,0,0-.47363.97949,8.45911,8.45911,0,0,0-.126,1.61914,9.141,9.141,0,0,0,.11035,1.58691,2.07736,2.07736,0,0,0,.40234.96387,1.46336,1.46336,0,0,0,.82129.48145,6.01852,6.01852,0,0,0,1.36719.127h.33887c.12109,0,.24512-.00586.37109-.01562V40.80371h3.23828V46.332q-1.043.26807-2.14844.4502A12.16174,12.16174,0,0,1,336.56035,46.96387Z"/><path class="cls-1" d="M342.29472,35.05371h3.55371V46.74219h-3.55371Z"/><path class="cls-1" d="M347.77617,35.05371h2.7959l4.248,5.14941.94822,1.31152h.15822V35.05371h3.0957V46.74219h-2.7959L352.13554,41.751l-1.10547-1.48437h-.1582v6.47559h-3.0957Z"/><path class="cls-1" d="M360.91679,35.05371h9.16113v2.7168H364.4705V39.54h5.00684v2.7168H364.4705v1.75293h5.76563v2.73242h-9.31934Z"/><path class="cls-1" d="M371.70488,35.05371H380.866v2.7168h-5.60742V39.54h5.00684v2.7168h-5.00684v1.75293h5.76563v2.73242h-9.31934Z"/><path class="cls-1" d="M387.54668,43.125a3.55946,3.55946,0,0,1-.48145.03223h-1.01855v3.585H382.493V35.13281a33.4971,33.4971,0,0,1,3.86914-.2373,15.75776,15.75776,0,0,1,2.93848.2373,5.87508,5.87508,0,0,1,2.02148.73438,3.03591,3.03591,0,0,1,1.16113,1.28711,4.39437,4.39437,0,0,1,.37109,1.87988,3.495,3.495,0,0,1-2.211,3.44336l2.81154,4.26465h-3.98047Zm-.48926-2.65332a6.54362,6.54362,0,0,0,1.05859-.07129,1.68766,1.68766,0,0,0,.6709-.23633.90374.90374,0,0,0,.34766-.44238,1.99267,1.99267,0,0,0,.10254-.6875,2.12825,2.12825,0,0,0-.09473-.68652.84352.84352,0,0,0-.32422-.43457,1.53749,1.53749,0,0,0-.63086-.22168,6.80548,6.80548,0,0,0-1.01953-.0625c-.14746,0-.334.00488-.56055.01563s-.41309.02637-.56055.04688v2.70117a2.09711,2.09711,0,0,0,.39453.06348Q386.6624,40.47217,387.05742,40.47168Z"/><path class="cls-1" d="M394.3084,35.05371h3.55371V46.74219H394.3084Z"/><path class="cls-1" d="M399.78886,35.05371h2.7959l4.248,5.14941.94824,1.31152h.1582V35.05371h3.0957V46.74219h-2.7959L404.14824,41.751l-1.10547-1.48437h-.1582v6.47559h-3.0957Z"/><path class="cls-1" d="M418.67949,46.96387a6.50963,6.50963,0,0,1-4.69922-1.48535,6.11274,6.11274,0,0,1-1.52441-4.56445q0-6.08057,6.55566-6.08105a18.2877,18.2877,0,0,1,1.88672.10254,12.77649,12.77649,0,0,1,1.69824.27637v2.81152q-1.07373-.17432-1.91113-.24512-.83789-.07031-1.38965-.07031a8.35155,8.35155,0,0,0-1.60352.126,1.82751,1.82751,0,0,0-.97168.48145,1.90551,1.90551,0,0,0-.47363.97949,8.45912,8.45912,0,0,0-.126,1.61914,9.141,9.141,0,0,0,.11035,1.58691,2.07736,2.07736,0,0,0,.40234.96387,1.46336,1.46336,0,0,0,.82129.48145,6.01852,6.01852,0,0,0,1.36719.127h.33887c.12109,0,.24512-.00586.37109-.01562V40.80371h3.23828V46.332q-1.043.26807-2.14844.4502A12.16174,12.16174,0,0,1,418.67949,46.96387Z"/><path class="cls-1" d="M51.372.164v8.489h5.967l-6.662,24.792S42.524.62608,42.409.164H33.787c-.122.451-8.942,33.283-8.942,33.283L18.71,8.65306h6.212V.164H0v8.489H5.522s9.53,38.117,9.645,38.579H28.544c.119-.451,6.386-24.275,6.386-24.275s5.955,23.817,6.069,24.275H54.376c.121-.455,10.148-38.579,10.148-38.579h5.477V.164Z"/></svg>