<svg id="Layer_1" data-name="Layer 1" xmlns="http://www.w3.org/2000/svg" viewBox="0 0 326.86799 149.2113"><defs><style>.cls-1,.cls-2{fill:#fff;}.cls-2{fill-rule:evenodd;}</style></defs><title>Logo White AI</title><path class="cls-1" d="M228.066,121.11362h27.8061l30.8679,55.7747,32.0204-55.7747h26.9059v75.765H327.621v-55.6665l-31.1199,55.6665H277.033l-31.0297-55.6665v55.6665H228.066v-75.765Zm133.3224,75.765v-75.765h17.9374v75.765Zm57.4135-75.765H451.777q14.10135,0,20.9265,5.2585,6.8346,5.241,6.8259,16.1725H460.169c-.072-2.395-.7203-4.07-1.9267-4.9887-1.2067-.9362-3.638-1.4045-7.2575-1.4045H420.855a11.54075,11.54075,0,0,0-6.4292,1.5488c-1.5489,1.0443-2.3233,2.8993-2.3233,5.5829a6.96562,6.96562,0,0,0,1.0264,4.2321,4.68313,4.68313,0,0,0,2.8996,1.747,28.83418,28.83418,0,0,0,4.8265.5043l33.1912,1.3147a84.90706,84.90706,0,0,1,11.6699,1.1165,18.5854,18.5854,0,0,1,7.6717,3.0793,13.58978,13.58978,0,0,1,4.6647,6.6816,36.17342,36.17342,0,0,1,1.5849,11.9222q0,12.2376-5.6909,17.6131-5.70015,5.3757-19.576,5.3847h-37.2076q-9.4815,0-15.0015-2.2873a14.7733,14.7733,0,0,1-7.888-7.0234q-2.3772-4.7274-2.3771-12.2103h18.3512a5.49147,5.49147,0,0,0,2.5393,4.5383,10.33562,10.33562,0,0,0,6.2311,1.8369h30.0214c4.1063,0,7.1139-.5403,8.9867-1.6028,1.8913-1.0805,2.8276-3.0977,2.8276-6.0511,0-2.9177-.8643-4.9887-2.5932-6.2311-1.711-1.2608-5.0428-1.9811-9.9592-2.1971l-28.7609-1.1526q-11.508-.54045-16.9826-1.9811a12.87589,12.87589,0,0,1-8.1403-5.8711q-2.6205-4.40295-2.6294-13.5788,0-8.0775,2.7374-12.8767a15.68359,15.68359,0,0,1,8.6267-6.9338q5.889-2.13375,15.6498-2.143Zm71.9651,0h18.0454v60.5112H554.934v15.2538H490.767Z" transform="translate(-228.06599 -47.66732)"/><path class="cls-2" d="M382.218,80.72532l16.5154-16.5099a10.4706,10.4706,0,1,1,3.2018,2.9435l-16.8713,16.8659c.1075.159.2141.3195.3172.4827a18.50948,18.50948,0,0,1,2.5753,13.2582l23.0828,5.1993a10.467,10.467,0,1,1-.7764,4.2795l-23.5814-5.3116a18.71865,18.71865,0,0,1-34.882-1.4156l-15.2136,5.0539c.0153.2316.0241.4649.0241.7005a10.47279,10.47279,0,1,1-1.2084-4.8864l15.5098-5.152c-.0465-.5349-.0715-1.0757-.0715-1.6228a18.50174,18.50174,0,0,1,4.3628-11.9585l-12.3372-10.1004c-.1874.1366-.3801.2687-.5791.3945a10.47252,10.47252,0,1,1,3.4835-3.6331l12.6295,10.3402q.5055-.3729,1.0366-.7126.15525-.10245.3127-.2024a18.58718,18.58718,0,0,1,22.4694,1.9871Zm-45.6237-23.9607a7.336,7.336,0,1,0,7.3361,7.336,7.33672,7.33672,0,0,0-7.3361-7.336ZM326.12,99.058a7.3361,7.3361,0,1,0,7.3361,7.3361A7.33668,7.33668,0,0,0,326.12,99.058Zm81.2475-48.4364a7.5875,7.5875,0,1,0,7.5875,7.5875,7.588,7.588,0,0,0-7.5875-7.5875Zm13.3974,48.6879a7.60915,7.60915,0,1,0,7.609,7.6093,7.6102,7.6102,0,0,0-7.609-7.6093Zm-51.2827-19.7436a15.00335,15.00335,0,1,0,15.0035,15.0032A15.00479,15.00479,0,0,0,369.48219,79.56592Z" transform="translate(-228.06599 -47.66732)"/><path class="cls-2" d="M369.48249,106.91342a12.34445,12.34445,0,1,0-12.3446-12.3443A12.368,12.368,0,0,0,369.48249,106.91342Z" transform="translate(-228.06599 -47.66732)"/><path class="cls-2" d="M420.76459,112.42822a5.5094,5.5094,0,1,0-5.5091-5.5094A5.52,5.52,0,0,0,420.76459,112.42822Z" transform="translate(-228.06599 -47.66732)"/><path class="cls-2" d="M407.36749,63.96972a5.7606,5.7606,0,1,0-5.7603-5.7606A5.77176,5.77176,0,0,0,407.36749,63.96972Z" transform="translate(-228.06599 -47.66732)"/><path class="cls-2" d="M336.59459,69.28772a5.18725,5.18725,0,1,0-5.1874-5.1871A5.19719,5.19719,0,0,0,336.59459,69.28772Z" transform="translate(-228.06599 -47.66732)"/><path class="cls-2" d="M326.12,111.58122a5.18725,5.18725,0,1,0-5.1874-5.1871A5.197,5.197,0,0,0,326.12,111.58122Z" transform="translate(-228.06599 -47.66732)"/></svg>