<?xml version="1.0" encoding="UTF-8" standalone="no"?>
<svg
   xmlns:dc="http://purl.org/dc/elements/1.1/"
   xmlns:cc="http://creativecommons.org/ns#"
   xmlns:rdf="http://www.w3.org/1999/02/22-rdf-syntax-ns#"
   xmlns:svg="http://www.w3.org/2000/svg"
   xmlns="http://www.w3.org/2000/svg"
   viewBox="0 0 462.5 222.5"
   height="222.5"
   width="462.5"
   xml:space="preserve"
   version="1.1"
   id="svg2"><metadata
     id="metadata8"><rdf:RDF><cc:Work
         rdf:about=""><dc:format>image/svg+xml</dc:format><dc:type
           rdf:resource="http://purl.org/dc/dcmitype/StillImage" /></cc:Work></rdf:RDF></metadata><defs
     id="defs6"><clipPath
       id="clipPath18"
       clipPathUnits="userSpaceOnUse"><path
         id="path20"
         d="M 0,0 370,0 370,178 0,178 0,0 Z" /></clipPath></defs><g
     transform="matrix(1.25,0,0,-1.25,0,222.5)"
     id="g10"><g
       id="g12" /><g
       id="g14"><g
         clip-path="url(#clipPath18)"
         id="g16"><path
           id="path22"
           style="fill:#000000;fill-opacity:1;fill-rule:nonzero;stroke:none"
           d="m 21.566,90.159 27.806,0 30.868,-55.774 32.02,55.774 26.906,0 0,-75.765 -18.045,0 0,55.667 -31.12,-55.667 -19.468,0 -31.03,55.667 0,-55.667 -17.937,0 0,75.765 z m 133.322,0 17.937,0 0,-75.765 -17.937,0 0,75.765 z m 57.414,0 32.975,0 c 9.401,0 16.37,-1.747 20.927,-5.258 4.556,-3.494 6.825,-8.879 6.825,-16.173 l -19.36,0 c -0.072,2.395 -0.72,4.07 -1.927,4.989 -1.206,0.936 -3.638,1.405 -7.257,1.405 l -30.13,0 c -2.737,0 -4.881,-0.523 -6.429,-1.549 -1.549,-1.045 -2.324,-2.9 -2.324,-5.583 0,-1.927 0.343,-3.35 1.027,-4.232 0.684,-0.901 1.657,-1.495 2.899,-1.747 1.261,-0.27 2.864,-0.433 4.827,-0.504 l 33.191,-1.315 c 4.718,-0.18 8.608,-0.558 11.67,-1.117 3.044,-0.558 5.619,-1.585 7.672,-3.079 2.053,-1.495 3.62,-3.728 4.664,-6.682 1.063,-2.953 1.585,-6.915 1.585,-11.922 0,-8.158 -1.891,-14.029 -5.69,-17.613 -3.801,-3.584 -10.338,-5.385 -19.577,-5.385 l -37.207,0 c -6.321,0 -11.328,0.757 -15.002,2.288 -3.674,1.53 -6.303,3.872 -7.888,7.023 -1.584,3.152 -2.377,7.222 -2.377,12.21 l 18.351,0 c 0,-1.783 0.847,-3.296 2.54,-4.538 1.693,-1.225 3.764,-1.837 6.231,-1.837 l 30.021,0 c 4.107,0 7.114,0.54 8.987,1.603 1.891,1.08 2.828,3.098 2.828,6.051 0,2.918 -0.865,4.989 -2.594,6.231 -1.711,1.261 -5.042,1.981 -9.959,2.197 l -28.761,1.153 c -7.672,0.36 -13.326,1.027 -16.982,1.981 -3.656,0.973 -6.376,2.917 -8.141,5.871 -1.747,2.935 -2.629,7.456 -2.629,13.579 0,5.385 0.919,9.671 2.737,12.877 1.837,3.205 4.719,5.51 8.627,6.933 3.926,1.423 9.149,2.143 15.65,2.143 z m 71.965,0 18.045,0 0,-60.511 46.122,0 0,-15.254 -64.167,0 0,75.765" /><path
           id="path24"
           style="fill:#000000;fill-opacity:1;fill-rule:evenodd;stroke:none"
           d="m 175.718,130.548 16.515,16.509 c -1.221,1.713 -1.94,3.81 -1.94,6.073 0,5.785 4.691,10.476 10.476,10.476 5.784,0 10.475,-4.691 10.475,-10.476 0,-5.784 -4.691,-10.475 -10.475,-10.475 -1.948,0 -3.771,0.533 -5.334,1.459 l -16.871,-16.866 c 0.107,-0.159 0.214,-0.319 0.317,-0.483 2.595,-4.101 3.382,-8.831 2.575,-13.258 l 23.083,-5.199 c 0.795,1.948 2.182,3.676 4.095,4.886 4.889,3.092 11.361,1.636 14.453,-3.253 3.092,-4.888 1.636,-11.36 -3.253,-14.453 -4.888,-3.092 -11.36,-1.635 -14.452,3.253 -1.042,1.646 -1.566,3.472 -1.619,5.287 l -23.582,5.312 c -1.415,-3.22 -3.758,-6.073 -6.929,-8.118 -2.955,-1.982 -6.509,-3.138 -10.334,-3.138 -8.194,0 -15.15,5.308 -17.619,12.672 l -15.213,-5.054 c 0.015,-0.232 0.024,-0.465 0.024,-0.701 0,-5.784 -4.691,-10.475 -10.476,-10.475 -5.784,0 -10.475,4.691 -10.475,10.475 0,5.785 4.691,10.476 10.475,10.476 4.02,0 7.511,-2.266 9.268,-5.589 l 15.509,5.152 c -0.046,0.535 -0.071,1.075 -0.071,1.622 0,4.555 1.641,8.727 4.363,11.959 l -12.338,10.1 c -0.187,-0.136 -0.38,-0.268 -0.579,-0.394 -4.888,-3.092 -11.36,-1.636 -14.452,3.253 -3.092,4.888 -1.635,11.36 3.253,14.452 4.888,3.093 11.36,1.636 14.452,-3.252 2.149,-3.398 2.101,-7.559 0.231,-10.82 l 12.629,-10.34 c 0.337,0.248 0.683,0.486 1.037,0.712 0.103,0.069 0.207,0.136 0.313,0.203 7.24,4.58 16.438,3.532 22.469,-1.987 z m -45.624,23.96 c 4.052,0 7.336,-3.285 7.336,-7.336 0,-4.051 -3.284,-7.336 -7.336,-7.336 -4.051,0 -7.336,3.285 -7.336,7.336 0,4.051 3.285,7.336 7.336,7.336 z M 119.62,112.215 c 4.051,0 7.336,-3.285 7.336,-7.336 0,-4.051 -3.285,-7.336 -7.336,-7.336 -4.051,0 -7.336,3.285 -7.336,7.336 0,4.051 3.285,7.336 7.336,7.336 z m 81.248,48.436 c 4.19,0 7.587,-3.397 7.587,-7.587 0,-4.19 -3.397,-7.588 -7.587,-7.588 -4.19,0 -7.588,3.398 -7.588,7.588 0,4.19 3.398,7.587 7.588,7.587 z m 13.397,-48.688 c 4.201,0 7.609,-3.407 7.609,-7.609 0,-4.202 -3.408,-7.609 -7.609,-7.609 -4.202,0 -7.609,3.407 -7.609,7.609 0,4.202 3.407,7.609 7.609,7.609 z m -51.283,19.744 c 8.285,0 15.004,-6.718 15.004,-15.003 0,-8.285 -6.719,-15.004 -15.004,-15.004 -8.285,0 -15.003,6.719 -15.003,15.004 0,8.285 6.718,15.003 15.003,15.003" /><path
           id="path26"
           style="fill:#ed1c24;fill-opacity:1;fill-rule:evenodd;stroke:none"
           d="m 162.982,129.048 c 6.817,0 12.345,-5.528 12.345,-12.344 0,-6.817 -5.528,-12.345 -12.345,-12.345 -6.816,0 -12.344,5.528 -12.344,12.345 0,6.816 5.528,12.344 12.344,12.344" /><path
           id="path28"
           style="fill:#99d420;fill-opacity:1;fill-rule:evenodd;stroke:none"
           d="m 214.265,109.864 c 3.042,0 5.509,-2.468 5.509,-5.51 0,-3.042 -2.467,-5.509 -5.509,-5.509 -3.042,0 -5.51,2.467 -5.51,5.509 0,3.042 2.468,5.51 5.51,5.51" /><path
           id="path30"
           style="fill:#0994dc;fill-opacity:1;fill-rule:evenodd;stroke:none"
           d="m 200.868,158.824 c 3.18,0 5.76,-2.579 5.76,-5.76 0,-3.181 -2.58,-5.76 -5.76,-5.76 -3.181,0 -5.761,2.579 -5.761,5.76 0,3.181 2.58,5.76 5.761,5.76" /><path
           id="path32"
           style="fill:#fbc707;fill-opacity:1;fill-rule:evenodd;stroke:none"
           d="m 130.094,152.36 c 2.865,0 5.187,-2.323 5.187,-5.188 0,-2.864 -2.322,-5.187 -5.187,-5.187 -2.864,0 -5.187,2.323 -5.187,5.187 0,2.865 2.323,5.188 5.187,5.188" /><path
           id="path34"
           style="fill:#a52e84;fill-opacity:1;fill-rule:evenodd;stroke:none"
           d="m 119.62,110.066 c 2.864,0 5.187,-2.323 5.187,-5.187 0,-2.865 -2.323,-5.188 -5.187,-5.188 -2.864,0 -5.187,2.323 -5.187,5.188 0,2.864 2.323,5.187 5.187,5.187" /></g></g></g></svg>