<svg id="Layer_1" data-name="Layer 1" xmlns="http://www.w3.org/2000/svg" viewBox="0 0 800 400"><defs><style>.cls-1{fill:#313538;}.cls-2{fill:#00c18b;}</style></defs><title>Twist</title><path class="cls-1" d="M107.27,166.55v68.63H95.22V166.55H73.35V155.73h55.79v10.82H107.27Z"/><path class="cls-1" d="M292.49,235.18H282L265.82,179.5l-16.07,55.68H239.27l-20.75-79.45h12.72l13.84,56.8,16-56.8h9.71l16,56.8,13.84-56.8h12.72Z"/><path class="cls-1" d="M409.65,235.18V155.73h12.06v79.45H409.65Z"/><path class="cls-1" d="M548.34,235.85c-11.94,0-20.53-2.79-28.12-10.49l8-7.92c5.8,5.81,12.16,7.59,20.3,7.59,10.38,0,16.41-4.46,16.41-12.16,0-3.46-1-6.36-3.13-8.26s-4-2.67-8.7-3.34l-9.38-1.33c-6.47-.89-11.6-3.12-15.06-6.36-3.91-3.68-5.81-8.7-5.81-15.17,0-13.84,10-23.32,26.56-23.32,10.49,0,17.85,2.67,24.66,9l-7.7,7.59c-4.92-4.69-10.6-6.14-17.29-6.14-9.38,0-14.51,5.36-14.51,12.39a9.43,9.43,0,0,0,3,7.36,17.75,17.75,0,0,0,8.93,3.68l9,1.34c7.36,1.11,11.5,2.9,14.84,5.91,4.35,3.8,6.48,9.49,6.48,16.3C576.92,227.15,565,235.85,548.34,235.85Z"/><path class="cls-1" d="M704.79,166.55v68.63H692.73V166.55H670.86V155.73h55.79v10.82H704.79Z"/><path class="cls-2" d="M370.19,280.17a8.74,8.74,0,0,1,5.92,15.16l-0.55.49A8.73,8.73,0,1,1,363.74,283l0.54-.5A8.68,8.68,0,0,1,370.19,280.17Z"/><path class="cls-2" d="M142.56,280.37a8.49,8.49,0,0,1,5.75,2.25l0.23,0.22,0.28,0.25A8.73,8.73,0,0,1,137.1,296l-0.37-.35a8.85,8.85,0,0,1-.63-12.43A8.75,8.75,0,0,1,142.56,280.37Z"/><path class="cls-2" d="M317.59,312.83a8.73,8.73,0,0,1,3.16,16.88L320,330a8.73,8.73,0,0,1-6.16-16.34l0.61-.23A8.63,8.63,0,0,1,317.59,312.83Z"/><path class="cls-2" d="M195.06,312.91a8.5,8.5,0,0,1,3.08.57l0.72,0.27a8.73,8.73,0,0,1-6.22,16.32l-0.65-.25A8.73,8.73,0,0,1,195.06,312.91Z"/><path class="cls-2" d="M256.06,321.91h0.74a8.73,8.73,0,1,1,0,17.47h-0.58a8.8,8.8,0,0,1-8.81-8.73A8.67,8.67,0,0,1,256.06,321.91Z"/><path class="cls-2" d="M417.55,119.84a8.74,8.74,0,0,1-5.93-15.16l0.55-.49A8.73,8.73,0,1,1,424,117l-0.53.49A8.75,8.75,0,0,1,417.55,119.84Z"/><path class="cls-2" d="M645.17,119.64a8.45,8.45,0,0,1-5.75-2.25l-0.24-.21-0.28-.25A8.74,8.74,0,0,1,650.64,104l0.37,0.35a8.84,8.84,0,0,1,.63,12.42A8.75,8.75,0,0,1,645.17,119.64Z"/><path class="cls-2" d="M470.14,87.18A8.73,8.73,0,0,1,467,70.3l0.76-.3a8.73,8.73,0,1,1,6.16,16.34l-0.62.23A8.57,8.57,0,0,1,470.14,87.18Z"/><path class="cls-2" d="M592.68,87.1a8.52,8.52,0,0,1-3.08-.57l-0.72-.27a8.73,8.73,0,0,1,6.21-16.32l0.66,0.25A8.74,8.74,0,0,1,592.68,87.1Z"/><path class="cls-2" d="M531.67,78.09h-0.72a8.73,8.73,0,1,1,0-17.47h0.57a8.81,8.81,0,0,1,8.82,8.74A8.67,8.67,0,0,1,531.67,78.09Z"/><path class="cls-2" d="M422.16,293.88H411.91V268.55h9.86c4.7,0,7.65,2.67,7.65,6.94a5.74,5.74,0,0,1-3.42,5.37,6,6,0,0,1,3.81,5.87C429.81,291.39,426.64,293.88,422.16,293.88ZM421.45,272h-5.69v7.26h5.69c2.46,0,4.13-1.28,4.13-3.63S423.9,272,421.45,272Zm0.36,10.71h-6v7.72h6c2.67,0,4.16-1.64,4.16-3.88S424.47,282.71,421.8,282.71Z"/><path class="cls-2" d="M446.17,293.88V268.55H450v25.33h-3.84Z"/><path class="cls-2" d="M482.18,291.39a9.58,9.58,0,0,1-13.34,0c-2.49-2.49-2.46-5.3-2.46-10.18s0-7.69,2.46-10.18a9.58,9.58,0,0,1,13.34,0c2.49,2.49,2.42,5.3,2.42,10.18S484.67,288.9,482.18,291.39Zm-2.92-18a5.33,5.33,0,0,0-7.54,0c-1.25,1.35-1.49,2.78-1.49,7.86s0.25,6.51,1.49,7.86a5.33,5.33,0,0,0,7.54,0c1.25-1.35,1.49-2.78,1.49-7.86S480.51,274.7,479.27,273.35Z"/><path class="cls-2" d="M507.69,294.09c-3.81,0-6.55-.89-9-3.34l2.56-2.53a8.36,8.36,0,0,0,6.48,2.42c3.31,0,5.23-1.42,5.23-3.88a3.41,3.41,0,0,0-1-2.63,4.4,4.4,0,0,0-2.78-1.07l-3-.43a8.67,8.67,0,0,1-4.8-2,6.3,6.3,0,0,1-1.85-4.84c0-4.41,3.2-7.44,8.47-7.44a10.55,10.55,0,0,1,7.86,2.88l-2.46,2.42a7.44,7.44,0,0,0-5.52-2c-3,0-4.63,1.71-4.63,3.95a3,3,0,0,0,1,2.35,5.66,5.66,0,0,0,2.85,1.17l2.88,0.43a8.38,8.38,0,0,1,4.73,1.89,6.63,6.63,0,0,1,2.06,5.19C516.8,291.32,513,294.09,507.69,294.09Z"/><path class="cls-2" d="M540.82,294.09a9.18,9.18,0,0,1-6.65-2.7c-2.49-2.49-2.46-5.3-2.46-10.18s0-7.69,2.46-10.18a9.18,9.18,0,0,1,6.65-2.7c4.66,0,8.15,2.74,9,7.79h-3.91c-0.6-2.56-2.31-4.34-5.12-4.34a5.06,5.06,0,0,0-3.74,1.53c-1.25,1.35-1.53,2.81-1.53,7.9s0.28,6.55,1.53,7.9a5.06,5.06,0,0,0,3.74,1.53c2.81,0,4.55-1.78,5.16-4.34h3.88C549,291.35,545.41,294.09,540.82,294.09Z"/><path class="cls-2" d="M565.65,293.88V268.55h3.84v25.33h-3.84Z"/><path class="cls-2" d="M586.79,293.88V268.55H603V272H590.63v7.4h10.53v3.42H590.63v7.61H603v3.45H586.79Z"/><path class="cls-2" d="M634.47,293.88l-11.71-17.83v17.83h-3.84V268.55h3.52l11.71,17.79V268.55H638v25.33h-3.52Z"/><path class="cls-2" d="M663.46,294.09a9.18,9.18,0,0,1-6.65-2.7c-2.49-2.49-2.46-5.3-2.46-10.18s0-7.69,2.46-10.18a9.18,9.18,0,0,1,6.65-2.7c4.66,0,8.15,2.74,9,7.79h-3.91c-0.6-2.56-2.31-4.34-5.12-4.34a5.06,5.06,0,0,0-3.74,1.53c-1.25,1.35-1.53,2.81-1.53,7.9s0.28,6.55,1.53,7.9a5.06,5.06,0,0,0,3.74,1.53c2.81,0,4.55-1.78,5.16-4.34h3.88C671.65,291.35,668.05,294.09,663.46,294.09Z"/><path class="cls-2" d="M688.3,293.88V268.55h16.19V272H692.14v7.4h10.53v3.42H692.14v7.61h12.35v3.45H688.3Z"/></svg>