<svg xmlns="http://www.w3.org/2000/svg" viewBox="0 0 477.16361 65.2119"><defs><style>.cls-1,.cls-3{fill:none;}.cls-2{fill:#231f20;}.cls-3{stroke:#231f20;stroke-width:0.5px;}.cls-4{fill:#33006f;}</style></defs><title>UW-EE-purple-RGB</title><g id="Layer_1" data-name="Layer 1"><rect class="cls-1" y="0.3804" width="88.73002" height="59.6636"/><path class="cls-2" d="M74.06442,57.8565"/></g><g id="University_of_Washington" data-name="University of Washington"><path class="cls-2" d="M409.78661,58.7784V47.3594l7.92771,12.73629h.77929V46.1719l1.3164-1.3164h-3.9804l1.3203,1.3164v9.6885l-6.8731-11.0049h-3.1504l1.293,1.3164V58.7784l-1.293,1.31729h3.9766Zm-11.7754.4931c-3.0488,0-4.1074-3.6435-4.1074-6.7969,0-3.1523,1.0586-6.79291,4.1074-6.79291,3.0762,0,4.1348,3.64061,4.1348,6.79291,0,3.1534-1.0586,6.7969-4.1348,6.7969m-6.0957-6.7969c0,3.877,2.1934,7.95609,6.0957,7.95609,3.9277,0,6.12111-4.07909,6.12111-7.95609,0-3.873-2.19341-7.957-6.12111-7.957-3.9023,0-6.0957,4.084-6.0957,7.957m-6.8931,6.4073V45.9922h2.8916l1.6285,1.627V44.8555h-10.7193v2.7637l1.6529-1.627h2.8671V58.8819l-1.1884,1.21379h4.081Zm-11.28409-5.708v4.9072a3.29225,3.29225,0,0,1-2.50741,1.0859c-3.3823,0-5.0888-3.4121-5.0888-6.6924,0-3.3076,2.145-6.6904,5.0888-6.6904a2.32723,2.32723,0,0,1,1.86141.7236l1.67869,1.6543V45.5254a6.80363,6.80363,0,0,0-3.5401-.8789c-4.1572,0-7.0781,3.7207-7.0781,7.8281,0,4.0293,2.9209,7.82909,7.0781,7.82909a6.64358,6.64358,0,0,0,4.1851-1.11229V53.1739l1.189-1.2149h-4.0816Zm-22.59871,5.6045V47.3594l8.0181,12.7422.688-.00591V46.1719l1.3164-1.3164h-3.9785l1.3178,1.3164v9.6885l-6.8715-11.0049H348.477l1.294,1.3164V58.7784l-1.294,1.31729h3.9776Zm-10.9282-13.9229,1.21391,1.2129V58.8819l-1.21391,1.21379h4.1064L343.104,58.8819V46.0684l1.2138-1.2129Zm-13.5386,7.5947h6.4068v6.4317l-1.2134,1.21379h4.1089l-1.21579-1.21379V46.0684l1.21579-1.2129h-4.1089l1.2134,1.2129v5.2471h-6.4068V46.0684l1.2163-1.2129h-4.0839l1.1884,1.2129V58.8819l-1.1884,1.21379h4.0839l-1.2163-1.21379Zm-6.8696,3.4102a3.377,3.377,0,0,0-1.42189-2.9209l-3.09861-2.2461a3.59291,3.59291,0,0,1-1.6816-2.6094,2.14635,2.14635,0,0,1,2.1967-2.1689,8.79167,8.79167,0,0,1,.9834.18059l1.3408,1.44541,1.4219-2.1192-3.0215-.5664a2.40686,2.40686,0,0,0-.7246-.0781,3.83764,3.83764,0,0,0-3.87449,3.7461,4.40785,4.40785,0,0,0,1.96239,3.4873l3.1265,2.247a2.58763,2.58763,0,0,1,1.0845,2.2217,2.51619,2.51619,0,0,1-2.5323,2.6875,2.5587,2.5587,0,0,1-1.05909-.207L313.06,57.2539l-1.3173,2.378,2.9184.5674a5.18851,5.18851,0,0,0,.9033.10439,4.37672,4.37672,0,0,0,4.2388-4.44329M302.749,48.2383l2.0937,6.3028h-4.2636Zm-3.6689,10.6699,1.1123-3.22951h5.0366l1.0586,3.22951-1.1885,1.18749h4.3149l-1.2133-1.23919-4.7539-14.001h-.7759l-4.8301,14.001-1.2397,1.23919h3.6679Zm-16.2056,1.18749,3.4873-11.02829,3.3848,11.02829h.7753L294.938,46.0684l1.2417-1.2129h-3.6695l1.1885,1.1856-3.2275,10.5429-3.127-10.5429,1.1885-1.1856h-4.315l1.2149,1.2129.3096,1.0078-2.9185,9.5078-3.1265-10.5429,1.189-1.1856h-4.3154l1.2392,1.2129,4.2896,14.02729ZM260.28661,50.96l-.5796.5576.064.2139h1.7802c-.2783,1.9336-.5371,3.6064-.9438,6.3115-.5796,4.01169-1.0723,5.42969-1.4795,5.7725a.7832.7832,0,0,1-.53659.1943,2.92721,2.92721,0,0,1-.94531-.3213.49784.49784,0,0,0-.5996.1494,1.30725,1.30725,0,0,0-.3653.7305c0,.4287.5581.6435.9229.6435a3.61887,3.61887,0,0,0,2.36031-1.4824c.72949-.9004,1.71629-2.9824,2.55279-7.833.1508-.9033.3227-1.8037.688-4.165l2.187-.2139.4736-.5576h-2.5313c.6426-3.9688,1.1792-5.1738,2.1026-5.1738a2.32465,2.32465,0,0,1,1.6518.7109.4345.4345,0,0,0,.6001-.0225,1.26785,1.26785,0,0,0,.4307-.79291c.022-.43169-.5586-.90139-1.2876-.90139a4.76573,4.76573,0,0,0-3.4551,1.8008,9.70364,9.70364,0,0,0-1.6963,4.3789Zm-9.6592,5.624c0-3.1777,1.6094-4.8945,2.27591-5.1728a2.00124,2.00124,0,0,1,.70849-.1729c1.0718,0,1.6934.81639,1.6934,2.4707.0449,2.7862-1.4156,5.3223-2.3174,5.6211a2.12375,2.12375,0,0,1-.6641.1494c-1.2007,0-1.6963-1.2871-1.6963-2.8955m3.66991-6.1387a5.11072,5.11072,0,0,0-2.31731.7735,6.71962,6.71962,0,0,0-3.0909,5.87889c0,1.50191.7095,3.17771,2.7041,3.17771a5.51653,5.51653,0,0,0,3.1993-1.4375,7.70028,7.70028,0,0,0,2.2539-5.40921c0-1.78119-.9453-2.98339-2.74909-2.98339m-24.86961-4.3769,3.8501,6.9492v5.8643l-1.2134,1.21379h4.1055L234.956,58.8819V53.0176l3.92731-6.92191,1.26659-1.24019h-3.7715l1.1885,1.1856-3.20459,5.7128-3.04741-5.7128,1.1875-1.1856h-4.3139Zm-8.0332,12.8135V45.9922h2.8936l1.6269,1.627V44.8555H215.19332v2.7637l1.65289-1.627h2.8672V58.8819l-1.1866,1.21379h4.0826Zm-13.8218-14.0264,1.2154,1.2129V58.8819l-1.2154,1.21379h4.1084l-1.2143-1.21379V46.0684l1.2143-1.2129Zm-4.417,11.0049a3.382,3.382,0,0,0-1.4199-2.9209l-3.10149-2.2461A3.58507,3.58507,0,0,1,196.957,48.084a2.14413,2.14413,0,0,1,2.1939-2.1689,8.7171,8.7171,0,0,1,.9819.18059l1.3442,1.44541,1.4199-2.1192-3.0224-.5664a2.38911,2.38911,0,0,0-.7236-.0781,3.83912,3.83912,0,0,0-3.875,3.7461,4.4035,4.4035,0,0,0,1.9653,3.4873l3.124,2.247a2.5912,2.5912,0,0,1,1.0855,2.2217,2.51688,2.51688,0,0,1-2.5313,2.6875,2.54285,2.54285,0,0,1-1.0586-.207l-1.4482-1.7061-1.3184,2.378,2.9204.5674a5.17659,5.17659,0,0,0,.9048.10439,4.377,4.377,0,0,0,4.2363-4.44329m-19.583-9.8682h1.8618a2.99163,2.99163,0,0,1,2.9175,3.0459,2.86036,2.86036,0,0,1-2.9175,2.8174h-1.8618Zm0,12.8897V52.9922h2.3003l3.6924,7.10349h2.5332l-1.189-1.21379-3.4082-6.252a3.99992,3.99992,0,0,0,2.8672-3.5625c0-2.5859-2.4028-4.2119-4.9341-4.2119h-4.7294l1.1889,1.2129V58.8819l-1.1889,1.21379h4.083Zm-6.8447,1.21379V57.3096l-1.6279,1.6504h-4.624V52.5528h3.4355l1.2148,1.2138V50.2012l-1.2148,1.2158h-3.4355V45.9922h4.624l1.6279,1.627V44.8555h-9.1191l1.1884,1.2129V58.8819l-1.1884,1.21379ZM156.96482,44.8555h-4.3149l1.2402,1.2129,4.2891,14.02729h.7749L163.372,46.0684l1.2403-1.2129h-3.6675l1.1885,1.1856-3.2305,10.5429-3.1265-10.5429Zm-11.8325,0,1.2148,1.2129V58.8819l-1.2148,1.21379h4.1069l-1.2133-1.21379V46.0684l1.2133-1.2129Zm-14.1821,13.9229V47.3594l8.1772,12.73629h.5308V46.1719l1.3149-1.3164h-3.978l1.3188,1.3164v9.6885l-6.8715-11.0049H128.291l1.2891,1.3164V58.7784l-1.2891,1.31729h3.9761Zm-17.1529-2.76371a4.53827,4.53827,0,0,0,4.7286,4.416c2.4785,0,4.9321-1.832,4.9321-4.416V46.1719l1.292-1.3164h-3.9761l1.3145,1.3164v9.84279A3.13086,3.13086,0,0,1,118.937,59.167a3.277,3.277,0,0,1-3.3574-3.15231V46.1719l1.3178-1.3164H112.479l1.3183,1.3164Z"/><text></text></g><g id="Rule"><line class="cls-3" x1="110.92872" y1="32.4058" x2="477.16361" y2="32.4058"/></g><g id="W"><path class="cls-4" d="M65.11772.3804V11.1421h7.5629l-8.4438,31.4248S53.90482.9663,53.75632.3804H42.82762c-.1553.5718-11.3345,42.1885-11.3345,42.1885l-7.7783-31.4268h7.8765V.3804H0V11.1421H7.00052S19.07962,59.458,19.22562,60.044h16.955c.1514-.57231,8.0962-30.77,8.0962-30.77s7.5479,30.1879,7.6929,30.77h16.958c.1499-.5762,12.8613-48.9019,12.8613-48.9019H88.73V.3804Z"/></g><g id="Division"><path class="cls-2" d="M112.49412,20.8272l1.7695-1.76951V2.0596L112.49412.2901h12.8794V4.3223l-2.3496-2.34961h-5.6274V8.9922h4.0317l1.7695-1.76951V12.4444l-1.7695-1.7696h-4.0317v8.4698h5.6274l2.3496-2.3492v4.0318Z"/><path class="cls-2" d="M128.85012,20.8272l1.7695-1.76951V2.0596L128.85012.2901h6.6718l-1.7695,1.7695v17.085h4.9024l2.3491-2.3492v4.0318Z"/><path class="cls-2" d="M143.92972,20.8272l1.7695-1.76951V2.0596L143.92972.2901h12.8794V4.3223l-2.3497-2.34961H148.832V8.9922h4.0317l1.7696-1.76951V12.4444l-1.7696-1.7696H148.832v8.4698h5.6274l2.3497-2.3492v4.0318Z"/><path class="cls-2" d="M169.27732,21.1172c-5.3081,0-8.7309-5.1924-8.7309-10.5586,0-5.4531,3.5097-10.5586,8.7309-10.5586a10.37545,10.37545,0,0,1,5.1924,1.2183V5.4244l-2.814-2.8135a3.03025,3.03025,0,0,0-2.3784-.9864c-3.916,0-4.9599,4.93119-4.9599,8.9341s1.1889,8.93409,4.9599,8.93409a3.03143,3.03143,0,0,0,2.3784-.98579l2.814-2.814v4.2349A9.06943,9.06943,0,0,1,169.27732,21.1172Z"/><path class="cls-2" d="M189.89692,1.97269h-3.4521v17.085l1.7695,1.76951h-6.6714l1.7691-1.76951V1.97269h-3.4517l-2.3496,2.34961V.2901h14.7354V4.3223Z"/><path class="cls-2" d="M207.81881,20.8272l-4.9023-9.4273h-2.7266v7.65779l1.7695,1.76951h-6.6718l1.7695-1.76951V2.0596L195.28761.2901h7.3969c3.481,0,7.0777,1.7988,7.0777,5.6274a5.31169,5.31169,0,0,1-3.8291,4.8731l4.55421,8.26709,1.76949,1.76951Zm-5.1343-18.85451h-2.4946V9.7173h2.4946a3.5276,3.5276,0,0,0,3.50981-3.7998C206.19432,3.5679,204.71481,1.97269,202.68451,1.97269Z"/><path class="cls-2" d="M214.57271,20.8272l1.76961-1.76951V2.0596L214.57271.2901h6.6719l-1.7695,1.7695V19.05769l1.7695,1.76951Z"/><path class="cls-2" d="M234.00441,21.1172c-5.30809,0-8.731-5.1924-8.731-10.5586,0-5.4531,3.5098-10.5586,8.731-10.5586a10.37607,10.37607,0,0,1,5.1924,1.2183V5.4244l-2.814-2.8135a3.03025,3.03025,0,0,0-2.3784-.9864c-3.916,0-4.96,4.93119-4.96,8.9341s1.189,8.93409,4.96,8.93409a3.03143,3.03143,0,0,0,2.3784-.98579l2.814-2.814v4.2349A9.06969,9.06969,0,0,1,234.00441,21.1172Z"/><path class="cls-2" d="M252.53511,20.8272l1.7408-1.7403-1.3057-4.061h-6.7583l-1.3633,4.061,1.7402,1.7403h-5.5112l1.7984-1.7984L249.40232.2901h1.91459l6.3818,18.7387,1.7983,1.7984Zm-2.8715-15.8379-2.8716,8.354h5.5981Z"/><path class="cls-2" d="M261.66791,20.8272l1.7696-1.76951V2.0596L261.66791.2901h6.6719l-1.76949,1.7695v17.085h4.90229l2.3492-2.3492v4.0318Z"/><path class="cls-2" d="M285.24461,20.8272l1.7695-1.76951V2.0596L285.24461.2901H298.124V4.3223l-2.3496-2.34961h-5.6275V8.9922h4.0318l1.7695-1.76951V12.4444l-1.7695-1.7696h-4.0318v8.4698h5.6275l2.3496-2.3492v4.0318Z"/><path class="cls-2" d="M338.69481,11.4869v8.122c-1.4214.8413-2.7847,1.5083-6.1782,1.5083-5.5694,0-9.9204-4.8442-9.9204-10.5586S327.09232,0,332.66161,0a10.74612,10.74612,0,0,1,5.1631,1.1895V5.4244l-2.8135-2.8135a3.06952,3.06952,0,0,0-2.3496-.9864c-3.9448,0-6.2656,4.67-6.2656,8.9341s2.3208,8.93409,6.2656,8.93409a4.25539,4.25539,0,0,0,2.9004-1.01509V11.4869l-1.7691-1.7696h6.67141Z"/><path class="cls-2" d="M343.50491,20.8272l1.7695-1.76951V2.0596L343.50491.2901h6.6718l-1.7695,1.7695V19.05769l1.7695,1.76951Z"/><path class="cls-2" d="M374.67971,20.8272l1.7695-1.76951V2.0596L374.67971.2901h12.8794V4.3223l-2.3497-2.34961H379.582V8.9922h4.0317l1.76961-1.76951V12.4444l-1.76961-1.7696H379.582v8.4698h5.6274l2.3497-2.3492v4.0318Z"/><path class="cls-2" d="M391.03661,20.8272l1.7676-1.76951V2.0596L391.03661.2901h12.8789V4.3223l-2.3496-2.34961H395.937V8.9922h4.0332l1.7695-1.76951V12.4444l-1.7695-1.7696H395.937v8.4698h5.6289l2.3496-2.3492v4.0318Z"/><path class="cls-2" d="M419.92141,20.8272l-4.9004-9.4273h-2.7285v7.65779l1.7695,1.76951h-6.6699l1.7675-1.76951V2.0596L407.39211.2901h7.3965c3.4804,0,7.0761,1.7988,7.0761,5.6274a5.312,5.312,0,0,1-3.8281,4.8731l4.55471,8.26709,1.76949,1.76951Zm-5.1328-18.85451h-2.4961V9.7173h2.4961a3.5273,3.5273,0,0,0,3.50971-3.7998C418.29832,3.5679,416.81781,1.97269,414.78861,1.97269Z"/><path class="cls-2" d="M426.67721,20.8272l1.7696-1.76951V2.0596L426.67721.2901h6.6699l-1.7695,1.7695V19.05769l1.7695,1.76951Z"/><path class="cls-2" d="M474.21041,11.4869v8.122c-1.4218.8413-2.78509,1.5083-6.1797,1.5083-5.5683,0-9.9199-4.8442-9.9199-10.5586S462.60691,0,468.17721,0a10.73722,10.73722,0,0,1,5.16211,1.1895V5.4244l-2.81251-2.8135a3.07,3.07,0,0,0-2.3496-.9864c-3.9453,0-6.2656,4.67-6.2656,8.9341s2.3203,8.93409,6.2656,8.93409a4.25539,4.25539,0,0,0,2.9004-1.01509V11.4869l-1.7695-1.7696H475.98Z"/><polygon class="cls-2" points="301.6 20.827 307.111 20.827 305.342 19.058 305.342 4.032 316.158 20.837 317.235 20.837 317.235 2.06 319.004 0.29 313.493 0.29 315.263 2.06 315.263 13.663 306.734 0.29 301.6 0.29 303.37 2.06 303.37 19.058 301.6 20.827"/><polygon class="cls-2" points="353.945 20.827 359.456 20.827 357.687 19.058 357.687 4.032 368.503 20.837 369.58 20.837 369.58 2.06 371.349 0.29 365.838 0.29 367.607 2.06 367.607 13.663 359.079 0.29 353.945 0.29 355.714 2.06 355.714 19.058 353.945 20.827"/><polygon class="cls-2" points="437.117 20.827 442.626 20.827 440.857 19.058 440.857 4.032 451.674 20.837 452.751 20.837 452.751 2.06 454.519 0.29 449.009 0.29 450.779 2.06 450.779 13.663 442.25 0.29 437.117 0.29 438.884 2.06 438.884 19.058 437.117 20.827"/></g></svg>